<svg width="1600" height="1000" viewBox="0 0 1600 1000" fill="none" xmlns="http://www.w3.org/2000/svg">
  <defs>
    <linearGradient id="bg" x1="0" y1="0" x2="1600" y2="1000" gradientUnits="userSpaceOnUse">
      <stop stop-color="#101012"/>
      <stop offset="1" stop-color="#1B1B1F"/>
    </linearGradient>
    <linearGradient id="line" x1="220" y1="220" x2="1380" y2="780" gradientUnits="userSpaceOnUse">
      <stop stop-color="#FF0066"/>
      <stop offset="1" stop-color="#FF4D94"/>
    </linearGradient>
  </defs>

  <rect width="1600" height="1000" fill="url(#bg)"/>
  <rect x="120" y="120" width="1360" height="760" rx="18" stroke="#2C2C33" stroke-width="3"/>
  <rect x="220" y="220" width="520" height="560" rx="10" stroke="#3B3B44" stroke-width="2"/>
  <rect x="860" y="220" width="520" height="220" rx="10" stroke="#3B3B44" stroke-width="2"/>
  <rect x="860" y="500" width="520" height="280" rx="10" stroke="#3B3B44" stroke-width="2"/>

  <path d="M260 320H700" stroke="url(#line)" stroke-width="3"/>
  <path d="M260 370H640" stroke="#616173" stroke-width="2"/>
  <path d="M260 420H680" stroke="#616173" stroke-width="2"/>
  <path d="M260 470H590" stroke="#616173" stroke-width="2"/>

  <circle cx="910" cy="270" r="8" fill="#FF0066"/>
  <path d="M940 270H1320" stroke="#FF4D94" stroke-width="2"/>
  <path d="M910 550H1320" stroke="#616173" stroke-width="2"/>
  <path d="M910 600H1260" stroke="#616173" stroke-width="2"/>
  <path d="M910 650H1300" stroke="#616173" stroke-width="2"/>

  <text x="160" y="170" fill="#C7C7D1" font-family="monospace" font-size="28" letter-spacing="4">CONCEPT FRAME</text>
  <text x="160" y="930" fill="#6E6E7B" font-family="monospace" font-size="20" letter-spacing="3">PORTFOLIO CASE STUDY VISUAL PLACEHOLDER</text>
</svg>
