<svg width="1600" height="1000" viewBox="0 0 1600 1000" fill="none" xmlns="http://www.w3.org/2000/svg">
  <defs>
    <linearGradient id="bg" x1="140" y1="80" x2="1460" y2="920" gradientUnits="userSpaceOnUse">
      <stop stop-color="#121218"/>
      <stop offset="1" stop-color="#0A0A0D"/>
    </linearGradient>
  </defs>

  <rect width="1600" height="1000" fill="#09090B"/>
  <rect x="120" y="80" width="1360" height="840" rx="20" fill="url(#bg)" stroke="#2D2D35" stroke-width="3"/>
  <rect x="170" y="140" width="1260" height="70" rx="8" fill="#15151B" stroke="#32323A"/>
  <circle cx="215" cy="175" r="8" fill="#FF0066"/>
  <circle cx="245" cy="175" r="8" fill="#676778"/>
  <circle cx="275" cy="175" r="8" fill="#676778"/>
  <rect x="340" y="160" width="320" height="30" rx="4" fill="#1F1F28"/>

  <rect x="170" y="250" width="360" height="620" rx="10" fill="#111118" stroke="#2F2F39"/>
  <rect x="560" y="250" width="870" height="300" rx="10" fill="#111118" stroke="#2F2F39"/>
  <rect x="560" y="570" width="420" height="300" rx="10" fill="#111118" stroke="#2F2F39"/>
  <rect x="1010" y="570" width="420" height="300" rx="10" fill="#111118" stroke="#2F2F39"/>

  <path d="M620 330H1370" stroke="#FF0066" stroke-width="3"/>
  <path d="M620 380H1320" stroke="#5D5D6C" stroke-width="2"/>
  <path d="M620 430H1260" stroke="#5D5D6C" stroke-width="2"/>
  <path d="M620 480H1340" stroke="#5D5D6C" stroke-width="2"/>

  <path d="M230 310H470" stroke="#5D5D6C" stroke-width="2"/>
  <path d="M230 360H450" stroke="#5D5D6C" stroke-width="2"/>
  <path d="M230 410H430" stroke="#5D5D6C" stroke-width="2"/>
  <rect x="230" y="470" width="180" height="40" rx="4" fill="#FF00661A" stroke="#FF0066"/>

  <text x="170" y="60" fill="#C9C9D3" font-family="monospace" font-size="28" letter-spacing="4">DEMO SURFACE</text>
  <text x="170" y="960" fill="#70707C" font-family="monospace" font-size="20" letter-spacing="3">LIVE PREVIEW PLACEHOLDER</text>
</svg>
